<?xml version="1.0" encoding="utf-8"?>
<!-- Generator: Adobe Illustrator 19.0.0, SVG Export Plug-In . SVG Version: 6.00 Build 0)  -->
<svg version="1.1" id="Layer_1" xmlns="http://www.w3.org/2000/svg" xmlns:xlink="http://www.w3.org/1999/xlink" x="0px" y="0px"
	 viewBox="0 0 54.5 45.8" style="enable-background:new 0 0 54.5 45.8;" xml:space="preserve">
<path id="book" style="fill:none;stroke:#4A8689;stroke-linecap:round;stroke-linejoin:round;stroke-miterlimit:10;" d="M25.3,29.5
	v5.1c-2.2-1.7-12.5-2.5-12.4-2.5h-1.6L11.3,1.4c0,0,6.1,2,13.2,6.1c0.1,0.1,0.2,0.2,0.2,0.4l-0.1,9.6 M28.3,29.5v5.1
	c2.2-1.7,12.5-2.5,12.4-2.5h1.6l0.1-30.7c0,0-6.2,2-13.4,6.2l0.1,9.9 M27.2,44.4C37.3,37.8,53,39.7,53,39.7l0.3-32.9
	c0,0-3.8,0.4-6.7,1.6l-0.1,27.3c0,0-12.8,1.1-19.4,4.2 M27.3,44.4c-10.1-6.7-25.8-4.8-25.8-4.8L1.2,6.8c0,0,3.8,0.4,6.7,1.6
	l0.1,27.3c0,0,12.8,1.1,19.4,4.2"/>
<path id="magnifier" style="fill:none;stroke:#EF4136;stroke-miterlimit:10;" d="M28.1,26.5L22.3,23c0.7-1.3,0.8-2.9,0.4-4.3
	c-0.4-1.5-1.4-2.7-2.8-3.5c-1.4-0.7-2.9-0.9-4.4-0.5c-1.5,0.4-2.7,1.4-3.5,2.8c-0.7,1.4-0.9,2.9-0.5,4.4c0.4,1.5,1.4,2.7,2.8,3.5
	c1.4,0.7,2.9,0.9,4.4,0.5c1.3-0.4,2.4-1.2,3.1-2.3l5.8,3.5c0.1,0.1,0.2,0.1,0.3,0c0.1,0,0.2-0.1,0.2-0.2
	C28.3,26.9,28.3,26.6,28.1,26.5L28.1,26.5z"/>
</svg>
