<?xml version="1.0" encoding="utf-8"?>
<!-- Generator: Adobe Illustrator 19.0.0, SVG Export Plug-In . SVG Version: 6.00 Build 0)  -->
<svg version="1.1" id="Layer_1" xmlns="http://www.w3.org/2000/svg" xmlns:xlink="http://www.w3.org/1999/xlink" x="0px" y="0px"
	 viewBox="0 0 38.3 46" style="enable-background:new 0 0 38.3 46;" xml:space="preserve">
<style type="text/css">
	.st0{display:none;}
	.st1{display:inline;fill:none;stroke:#4A8689;stroke-miterlimit:10;}
	.st2{display:inline;}
	.st3{fill:none;stroke:#4A8689;stroke-miterlimit:10;}
	.st4{fill:none;stroke:#EF4136;stroke-miterlimit:10;}
	.st5{display:inline;fill:none;stroke:#4A8689;stroke-linecap:round;stroke-miterlimit:10;}
	.st6{display:inline;fill:none;stroke:#EF4136;stroke-linecap:round;stroke-miterlimit:10;}
</style>
<g id="coins_1_" class="st0">
	<path id="coins" class="st1" d="M30.6,7.8H-7c-0.6,0-1-0.4-1-1v-2c0-0.6,0.4-1,1-1h37.7c0.6,0,1,0.4,1,1v2
		C31.6,7.4,31.2,7.8,30.6,7.8z M30.6,12.2v-2c0-0.6-0.4-1-1-1H-8c-0.6,0-1,0.4-1,1v2c0,0.6,0.4,1,1,1h37.7
		C30.2,13.2,30.6,12.7,30.6,12.2z M25.2,41.2H-7c-0.5,0-1,0.5-1,1v2c0,0.5,0.4,1,1,1h37.7c0.3,0,0.6-0.2,0.8-0.4 M21.6,35.8H-6
		c-0.5,0-1,0.5-1,1v2c0,0.5,0.5,1,1,1h30 M20.7,30.5H-5c-0.5,0-1,0.4-1,1v2c0,0.5,0.5,1,1,1h26.2 M20.7,29.2H-7c-0.5,0-1-0.5-1-1v-2
		c0-0.6,0.4-1,1-1h28.7 M22.2,23.8H-5c-1.5,0-2-0.4-2-1v-2c0-0.5,0.5-1,1-1h31.2 M26.8,18.5H-7c-0.5,0-1-0.4-1-1v-2c0-0.6,0.4-1,1-1
		h37.7c0.5,0,1,0.4,1,1v0.7"/>
	<g id="coin" class="st2">
		<circle id="XMLID_68_" class="st3" cx="35.4" cy="30.5" r="14.8"/>
		<circle id="XMLID_67_" class="st4" cx="35.4" cy="30.5" r="11.6"/>
	</g>
</g>
<g id="monitor_x2B_man" class="st0">
	<path id="monitor_1_" class="st5" d="M31.1,45H7.8 M-8.5,33.1h55.2 M18.7,39.3H-4.1c-2.4,0-4.4-2-4.4-4.4v-29c0-2.4,2-4.4,4.4-4.4
		h46.5c2.4,0,4.4,2,4.4,4.4v29c0,2.4-2,4.4-4.4,4.4H18.7L18.6,45"/>
	<path id="man" class="st6" d="M34.1,30.9c-1-3.7-4.9-4.5-7-5c-0.5-0.1-0.9-0.2-1.1-0.3c-1.6-0.7-2.5-1.7-2.9-3.1
		c1.4-1.2,2.7-3.2,3.4-5.3c0.7-1,1.1-1.9,1.1-2.8c0-0.6-0.2-1-0.5-1.4c-0.2-4.7-3.6-8.4-7.7-8.5l-0.1,0c-4.1,0-7.5,3.6-7.8,8.2
		c-0.5,0.4-0.8,0.9-0.8,1.6c0,1,0.6,2.2,1.5,3.3c0.7,1.9,1.7,3.5,3,4.7c-0.3,1.4-1.3,2.4-2.9,3.1c-0.2,0.1-0.6,0.2-1.1,0.3
		c-2.1,0.5-6.1,1.5-7.1,5.2"/>
</g>
<g id="book_x2B_man">
	<path id="XMLID_175_" class="st3" d="M5,28c-1.6,0.9-2.9,2.3-3.5,4.4"/>
	<path id="XMLID_174_" class="st3" d="M32.4,27.6c1.9,0.8,3.8,2.2,4.4,4.7"/>
	<path id="XMLID_173_" class="st3" d="M14.2,23.2c0.1-0.3,0.3-0.6,0.3-0.9c-1.5-1.4-2.7-3.3-3.5-5.5c-1.2-1.3-1.8-2.7-1.8-3.9
		c0-0.8,0.3-1.4,0.9-1.9c0.3-5.5,4.3-9.7,9.2-9.7h0.1c4.9,0.1,8.9,4.4,9.1,10c0.4,0.4,0.6,1,0.6,1.6c0,1-0.5,2.2-1.3,3.3
		c-0.8,2.5-2.2,4.8-4,6.3c0,0.2,0.1,0.3,0.1,0.5"/>
	<path id="XMLID_171_" class="st4" d="M31.3,21.7c-5.2,0-10,2-12.4,3.6h-0.3c-2.4-1.6-7.2-3.6-12.4-3.6H5v18.8h1.1
		c3.9,0,8.1,1.2,10,2.4c0.6,0.4,1.1,0.7,1.5,1.1l1,0.7h0.1l1-0.7c0.5-0.4,1-0.8,1.5-1.1c1.9-1.2,6.2-2.4,10-2.4h1.1V21.7
		C32.4,21.7,31.3,21.7,31.3,21.7z"/>
</g>
</svg>
