<?xml version="1.0" encoding="utf-8"?>
<!-- Generator: Adobe Illustrator 19.0.0, SVG Export Plug-In . SVG Version: 6.00 Build 0)  -->
<svg version="1.1" id="Layer_1" xmlns="http://www.w3.org/2000/svg" xmlns:xlink="http://www.w3.org/1999/xlink" x="0px" y="0px"
	 viewBox="-270.2 375.5 58.2 43.5" style="enable-background:new -270.2 375.5 58.2 43.5;" xml:space="preserve">
<path id="coins_x5F_stack" style="fill:none;stroke:#4A8689;stroke-miterlimit:10;" d="M-233.4,380.8h-34.1c-0.5,0-0.9-0.4-0.9-1v-2
	c0-0.6,0.4-1,0.9-1h34.1c0.5,0,0.9,0.4,0.9,1v2C-232.5,380.4-232.9,380.8-233.4,380.8z M-233.4,385.2v-2c0-0.6-0.4-1-0.9-1h-34.1
	c-0.5,0-0.9,0.4-0.9,1v2c0,0.6,0.4,1,0.9,1h34.1C-233.8,386.2-233.4,385.7-233.4,385.2z M-238.3,414.2h-29.1c-0.5,0-0.9,0.5-0.9,1v2
	c0,0.5,0.5,1,0.9,1h34.1c0.3,0,0.5-0.2,0.7-0.4 M-241.5,408.8h-25c-0.5,0-0.9,0.5-0.9,1v2c0,0.5,0.5,1,0.9,1h27.1 M-242.4,403.5
	h-23.2c-0.5,0-0.9,0.4-0.9,1v2c0,0.6,0.4,1,0.9,1h23.7 M-242.4,402.2h-25c-0.5,0-0.9-0.5-0.9-1v-2c0-0.6,0.5-1,0.9-1h25.9
	 M-241,396.8h-24.7c-1.4,0-1.8-0.4-1.8-1v-2c0-0.5,0.5-1,0.9-1h28.2 M-236.8,391.5h-30.6c-0.5,0-0.9-0.4-0.9-1v-2c0-0.6,0.5-1,0.9-1
	h34.1c0.5,0,0.9,0.4,0.9,1v0.7"/>
<g id="coin">
	<circle id="outer_x5F_coin" style="fill:none;stroke:#4A8689;stroke-miterlimit:10;" cx="-227.8" cy="403.5" r="14.8"/>
	<circle id="inner_x5F_coin" style="fill:none;stroke:#EF4136;stroke-miterlimit:10;" cx="-227.8" cy="403.5" r="11.6"/>
</g>
</svg>
