<?xml version="1.0" encoding="utf-8"?>
<!-- Generator: Adobe Illustrator 19.0.0, SVG Export Plug-In . SVG Version: 6.00 Build 0)  -->
<svg version="1.1" id="Layer_1" xmlns="http://www.w3.org/2000/svg" xmlns:xlink="http://www.w3.org/1999/xlink" x="0px" y="0px"
	 viewBox="-275 374.7 59.7 44.3" style="enable-background:new -275 374.7 59.7 44.3;" xml:space="preserve">
<g id="company_1_">
	<path id="XMLID_267_" style="fill:none;stroke:#4A8689;stroke-linecap:round;stroke-miterlimit:10;" d="M-274,403.9
		c1.1-4,5.3-5,7.6-5.5c0.5-0.1,0.9-0.2,1.2-0.3c1.7-0.7,2.7-1.8,3.1-3.3c-1.3-1.2-2.5-3-3.2-5c-1.1-1.2-1.7-2.5-1.7-3.5
		c0-0.7,0.3-1.3,0.8-1.7c0.3-5,3.9-8.9,8.3-8.9h0.1c4.5,0.1,8.1,4,8.3,9.1"/>
	<path id="XMLID_266_" style="fill:none;stroke:#4A8689;stroke-linecap:round;stroke-miterlimit:10;" d="M-240.9,384.8
		c0.2-5,3.8-9,8.2-9.1h0.1c4.4,0,8,3.9,8.4,8.8c0.6,0.4,0.9,1,0.9,1.7c0,1.1-0.6,2.3-1.6,3.5c-0.7,2-1.8,3.8-3.2,5
		c0.4,1.5,1.4,2.6,3.1,3.3c0.2,0.1,0.7,0.2,1.2,0.3c2.3,0.5,6.5,1.5,7.6,5.5"/>
	<path id="man_1_" style="fill:none;stroke:#EF4136;stroke-linecap:round;stroke-miterlimit:10;" d="M-226.7,418.1
		c-1.2-4.6-6.2-5.7-8.8-6.2c-0.6-0.1-1.1-0.2-1.4-0.4c-1.9-0.8-3.1-2.1-3.6-3.8c1.8-1.6,3.3-4,4.2-6.6c0.9-1.2,1.4-2.4,1.4-3.5
		c0-0.7-0.2-1.3-0.7-1.7c-0.2-5.9-4.4-10.5-9.6-10.6h-0.2c-5.1,0-9.3,4.5-9.7,10.3c-0.7,0.5-1,1.2-1,2c0,1.2,0.7,2.7,1.9,4.1
		c0.8,2.3,2.2,4.4,3.7,5.8c-0.4,1.7-1.6,3-3.6,3.9c-0.3,0.1-0.8,0.2-1.3,0.4c-2.7,0.6-7.6,1.8-8.9,6.4"/>
</g>
</svg>
