<?xml version="1.0" encoding="utf-8"?>
<!-- Generator: Adobe Illustrator 19.0.0, SVG Export Plug-In . SVG Version: 6.00 Build 0)  -->
<svg version="1.1" id="Layer_1" xmlns="http://www.w3.org/2000/svg" xmlns:xlink="http://www.w3.org/1999/xlink" x="0px" y="0px"
	 viewBox="-275 374 59.1 46" style="enable-background:new -275 374 59.1 46;" xml:space="preserve">
<g id="monitor_x2B_man">
	<path id="monitor_1_" style="fill:none;stroke:#4A8689;stroke-linecap:round;stroke-miterlimit:10;" d="M-233.5,419h-23.2
		 M-273,407.1h55.2 M-245.9,413.3h-22.8c-2.4,0-4.4-2-4.4-4.4v-29c0-2.4,2-4.4,4.4-4.4h46.5c2.4,0,4.4,2,4.4,4.4v29
		c0,2.4-2,4.4-4.4,4.4H-245.9l-0.1,5.7"/>
	<path id="man" style="fill:none;stroke:#EF4136;stroke-linecap:round;stroke-miterlimit:10;" d="M-230.5,404.9c-1-3.7-4.9-4.5-7-5
		c-0.5-0.1-0.9-0.2-1.1-0.3c-1.6-0.7-2.5-1.7-2.9-3.1c1.4-1.2,2.7-3.2,3.4-5.3c0.7-1,1.1-1.9,1.1-2.8c0-0.6-0.2-1-0.5-1.4
		c-0.2-4.7-3.6-8.4-7.7-8.5h-0.1c-4.1,0-7.5,3.6-7.8,8.2c-0.5,0.4-0.8,0.9-0.8,1.6c0,1,0.6,2.2,1.5,3.3c0.7,1.9,1.7,3.5,3,4.7
		c-0.3,1.4-1.3,2.4-2.9,3.1c-0.2,0.1-0.6,0.2-1.1,0.3c-2.1,0.5-6.1,1.5-7.1,5.2"/>
</g>
</svg>
