<?xml version="1.0" encoding="utf-8"?>
<!-- Generator: Adobe Illustrator 19.0.0, SVG Export Plug-In . SVG Version: 6.00 Build 0)  -->
<svg version="1.1" id="Layer_1" xmlns="http://www.w3.org/2000/svg" xmlns:xlink="http://www.w3.org/1999/xlink" x="0px" y="0px"
	 viewBox="-276 374 58.2 46" style="enable-background:new -276 374 58.2 46;" xml:space="preserve">
<g id="monitor_x2B_hat">
	<path id="monitor" style="fill:none;stroke:#4A8689;stroke-linecap:round;stroke-miterlimit:10;" d="M-235,418.7h-23.2
		 M-274.5,406.8h55.2 M-247.4,413h-22.7c-2.4,0-4.4-2-4.4-4.4v-29c0-2.4,2-4.4,4.4-4.4h46.5c2.4,0,4.4,2,4.4,4.4v29
		c0,2.4-2,4.4-4.4,4.4H-247.4l-0.1,5.7"/>
	<path id="hat" style="fill:none;stroke:#F15A29;stroke-linecap:round;stroke-miterlimit:10;" d="M-259.9,390.7v5.2
		c0,0.3,0.1,0.5,0.3,0.7c0.2,0.2,4.3,4.2,12.5,4.2c3,0,5.8-0.5,8.3-1.6 M-231.2,399.2v-9.5l3.2-1.3c0.2-0.1,0.2-0.4,0-0.4l-18.7-6.8
		c-0.2-0.1-0.4-0.1-0.6,0l-18.5,6.6c-0.2,0.1-0.2,0.3,0,0.4c1.5,0.6,5.9,2.4,6,2.5 M-259.9,390.7l12.5,4.2c0.1,0,0.2,0.1,0.3,0.1
		c0.1,0,0.2,0,0.3-0.1l15.7-5.2 M-238.8,399.2c4.3-1.7,5-2.7,5.1-2.9c0.2-0.2,0.3-0.4,0.3-0.7v-5.2"/>
</g>
</svg>
