<?xml version="1.0" encoding="utf-8"?>
<!-- Generator: Adobe Illustrator 18.0.0, SVG Export Plug-In . SVG Version: 6.00 Build 0)  -->
<!DOCTYPE svg PUBLIC "-//W3C//DTD SVG 1.1//EN" "http://www.w3.org/Graphics/SVG/1.1/DTD/svg11.dtd">
<svg version="1.1" id="Layer_1" xmlns="http://www.w3.org/2000/svg" xmlns:xlink="http://www.w3.org/1999/xlink" x="0px" y="0px"
	 viewBox="0 0 100 100" enable-background="new 0 0 100 100" xml:space="preserve">
<path fill="#FFFFFF" d="M50,5C25.1,5,5,25.1,5,50s20.1,45,45,45s45-20.1,45-45S74.9,5,50,5z M74.2,31.1c-2.1,0.1-3.5-1.2-3.6-3
	c0-0.7,0.2-1.3,0.6-2c0.5-0.9,0.6-1,0.6-1.4c-0.1-1.2-1.8-1.2-2.3-1.2c-6.7,0.2-8.5,9.3-9.9,16.7L58.8,44c3.9,0.6,6.7-0.2,8.2-1.1
	c2.2-1.4-0.6-2.9-0.2-4.5c0.3-1.6,1.8-2.4,3-2.5c1.7-0.1,2.8,1.7,2.8,3.4c-0.1,2.9-3.9,6.8-11.5,6.7c-1,0-1.8-0.1-2.6-0.2l-1.4,7.9
	c-1.3,6-3,14.2-9.1,21.4c-5.3,6.3-10.6,7.2-13,7.3c-4.5,0.2-7.5-2.2-7.5-5.5c-0.1-3,2.6-4.7,4.4-4.8c2.4-0.1,4,1.7,4.1,3.6
	c0.1,1.7-0.8,2.2-1.4,2.6c-0.4,0.3-1,0.6-1,1.4c0,0.3,0.3,1,1.4,1c1.9-0.1,3.1-1,4-1.6c4.3-3.6,6-9.9,8.3-21.5l0.5-2.8
	c0.7-3.8,1.6-7.9,2.8-12.1c-3-2.3-4.9-5.2-9.1-6.3c-2.8-0.8-4.6-0.1-5.8,1.4c-1.4,1.8-1,4.2,0.4,5.5l2.3,2.6
	c2.8,3.3,4.3,5.8,3.8,9.1c-0.9,5.5-7.4,9.6-15,7.2c-6.5-2-7.8-6.7-7-9.1c0.7-2.2,2.5-2.6,4.3-2.2c1.8,0.6,2.6,2.8,2.1,4.6
	c-0.1,0.2-0.2,0.5-0.3,0.9c-0.2,0.5-0.6,0.9-0.8,1.4c-0.4,1.4,1.4,2.3,2.7,2.7c2.9,0.9,5.8-0.6,6.5-3c0.6-2.2-0.7-3.7-1.3-4.3
	l-2.7-3c-1.3-1.4-4-5.4-2.7-9.8c0.6-1.7,1.6-3.5,3.2-4.7c3.4-2.5,7.1-3,10.5-1.9c4.5,1.3,6.7,4.3,9.5,6.6c1.6-4.7,3.8-9.1,7.1-13
	c3-3.4,7-6,11.6-6.2c4.6-0.2,8,1.9,8.1,5.2C77.8,28.3,77,30.9,74.2,31.1z"/>
</svg>
