<?xml version="1.0" encoding="UTF-8" standalone="no"?>
<svg
   xmlns:dc="http://purl.org/dc/elements/1.1/"
   xmlns:cc="http://creativecommons.org/ns#"
   xmlns:rdf="http://www.w3.org/1999/02/22-rdf-syntax-ns#"
   xmlns:svg="http://www.w3.org/2000/svg"
   xmlns="http://www.w3.org/2000/svg"
   xmlns:sodipodi="http://sodipodi.sourceforge.net/DTD/sodipodi-0.dtd"
   xmlns:inkscape="http://www.inkscape.org/namespaces/inkscape"
   version="1.0"
   width="512.000000pt"
   height="512.000000pt"
   viewBox="0 0 512.000000 512.000000"
   preserveAspectRatio="xMidYMid meet"
   id="svg4148"
   inkscape:version="0.91 r13725"
   sodipodi:docname="course-icons_sql_basic.svg">
  <defs
     id="defs4162" />
  <sodipodi:namedview
     pagecolor="#ffffff"
     bordercolor="#666666"
     borderopacity="1"
     objecttolerance="10"
     gridtolerance="10"
     guidetolerance="10"
     inkscape:pageopacity="0"
     inkscape:pageshadow="2"
     inkscape:window-width="1920"
     inkscape:window-height="1058"
     id="namedview4160"
     showgrid="false"
     inkscape:zoom="0.36875"
     inkscape:cx="317.28814"
     inkscape:cy="320"
     inkscape:window-x="1358"
     inkscape:window-y="-8"
     inkscape:window-maximized="1"
     inkscape:current-layer="svg4148" />
  <metadata
     id="metadata4150">
Created by potrace 1.13, written by Peter Selinger 2001-2015
<rdf:RDF>
  <cc:Work
     rdf:about="">
    <dc:format>image/svg+xml</dc:format>
    <dc:type
       rdf:resource="http://purl.org/dc/dcmitype/StillImage" />
    <dc:title></dc:title>
  </cc:Work>
</rdf:RDF>
</metadata>
  <g
     transform="translate(0.000000,512.000000) scale(0.100000,-0.100000)"
     fill="#000000"
     stroke="none"
     id="g4152"
     style="fill:#ffffff;fill-opacity:1">
    <path
       d="M2070 5110 c-822 -53 -1470 -213 -1702 -420 -90 -81 -98 -105 -98 -311 0 -208 7 -227 98 -309 230 -209 878 -370 1692 -420 214 -13 800 -13 1005 0 819 53 1458 212 1687 420 91 82 98 101 98 309 0 157 -2 179 -21 218 -64 132 -335 270 -713 362 -243 60 -533 105 -876 137 -204 19 -956 27 -1170 14z m1170 -410 c729 -32 1186 -103 1198 -186 18 -125 -1140 -224 -2265 -194 -779 20 -1286 73 -1451 152 -191 91 301 191 1123 227 270 12 1128 12 1395 1z"
       id="path4154"
       style="fill:#ffffff;fill-opacity:1" />
    <path
       d="M271 2191 l-1 -1625 21 -43 c79 -163 445 -321 971 -417 421 -78 719 -101 1298 -101 497 0 662 9 1013 56 678 90 1162 268 1256 462 l21 43 -1 1625 c0 994 -4 1612 -10 1593 -5 -18 -30 -55 -55 -83 -202 -225 -867 -398 -1734 -451 -212 -13 -768 -13 -980 0 -868 53 -1532 226 -1734 451 -25 28 -50 65 -55 83 -6 19 -10 -599 -10 -1593z m1139 410 c63 -5 145 -17 183 -26 l67 -17 0 -154 0 -153 -67 34 c-237 120 -533 69 -533 -91 0 -41 5 -51 48 -94 38 -40 84 -68 241 -145 219 -109 285 -160 337 -262 28 -55 29 -64 29 -188 0 -122 -2 -133 -28 -187 -54 -111 -160 -188 -314 -230 -63 -17 -109 -21 -243 -22 -171 -1 -273 13 -378 52 l-47 18 -3 163 -3 162 34 -25 c46 -36 151 -83 227 -102 99 -25 248 -16 317 19 60 31 72 48 79 115 5 39 2 53 -18 82 -35 51 -112 100 -259 166 -295 130 -387 246 -377 478 3 86 8 109 31 154 70 135 211 224 398 250 86 13 143 13 279 3z m1424 -15 c250 -58 443 -258 508 -524 27 -112 28 -309 3 -427 -47 -221 -172 -391 -358 -486 l-85 -43 60 -55 c80 -73 130 -103 203 -123 87 -25 171 -30 243 -15 l62 14 0 -138 0 -137 -27 -6 c-68 -15 -271 -19 -324 -6 -142 34 -243 101 -419 280 l-135 138 -85 12 c-227 32 -416 169 -515 375 -65 132 -79 202 -79 380 0 124 4 165 22 233 80 298 309 505 597 541 84 11 256 4 329 -13z m1116 -616 l0 -610 280 0 280 0 0 -140 0 -140 -450 0 -450 0 0 750 0 750 170 0 170 0 0 -610z"
       id="path4156"
       style="fill:#ffffff;fill-opacity:1" />
    <path
       d="M2547 2300 c-140 -25 -245 -139 -288 -310 -8 -31 -14 -103 -13 -165 1 -167 35 -265 126 -361 73 -78 128 -99 258 -99 95 0 111 3 162 28 137 67 208 214 208 433 0 125 -24 240 -64 308 -35 59 -103 122 -159 146 -54 24 -158 33 -230 20z"
       id="path4158"
       style="fill:#ffffff;fill-opacity:1" />
  </g>
</svg>
