<?xml version="1.0" encoding="utf-8"?>
<!-- Generator: Adobe Illustrator 18.0.0, SVG Export Plug-In . SVG Version: 6.00 Build 0)  -->
<!DOCTYPE svg PUBLIC "-//W3C//DTD SVG 1.1//EN" "http://www.w3.org/Graphics/SVG/1.1/DTD/svg11.dtd">
<svg version="1.1" id="Layer_1" xmlns="http://www.w3.org/2000/svg" xmlns:xlink="http://www.w3.org/1999/xlink" x="0px" y="0px"
	 viewBox="0 0 352.2 467.2" enable-background="new 0 0 352.2 467.2" xml:space="preserve">
<g id="java">
	<g id="XMLID_1212_">
		<path id="XMLID_22_" fill="#FFFFFF" stroke="#FFFFFF" stroke-width="9.375000e-02" stroke-miterlimit="10" d="M220.7,1
			c10.4,11.9,13.9,28.9,10.9,44.2c-3.2,17.2-12.8,32.4-24,45.5c-9,10.6-19.3,19.9-30.1,28.5c-12.6,10.1-24.9,21-32.8,35.2
			c-6.7,11.6-8.2,25.8-3.7,38.3c7.4,21.5,24.8,37.5,34.2,57.9c-10.4-9.2-20.7-18.8-30.2-28.9c-10-10.7-19.4-22-25.7-35.3
			c-4.2-9.3-6.1-20.2-2.9-30.1c3.2-10.1,10.4-18.2,17.7-25.8c20.1-20.1,44.9-34.9,64.5-55.3c10.9-11.2,19.9-24.7,23-40.1
			C224.2,23.9,223,12.2,220.7,1L220.7,1z"/>
		<path id="XMLID_21_" fill="#FFFFFF" stroke="#FFFFFF" stroke-width="9.375000e-02" stroke-miterlimit="10" d="M204.2,127.5
			c21.6-15.9,46.8-26,72.3-33.3c-20.2,12.9-41.3,24.7-58.8,41.2c-6.3,6.1-12.3,13.1-15.1,21.7c-2.1,6.3-1.2,13.3,1.3,19.3
			c4.7,10.7,12.6,19.3,18.5,29.1c5.1,8.3,6,19,2.1,28c-5.9,13.2-17.4,22.9-29.4,30.5c-1.6,0.9-2.9,2.6-4.8,2.8
			c8-7.2,14.2-17.4,14-28.4c-0.2-8.2-4.8-15.4-10.1-21.3c-11-13.1-20.2-29.8-18.3-47.4C177.9,152,190.6,137.7,204.2,127.5
			L204.2,127.5z"/>
		<path id="XMLID_20_" fill="#FFFFFF" stroke="#FFFFFF" stroke-width="9.375000e-02" stroke-miterlimit="10" d="M280.7,255.9
			c4.7-5.7,12.1-7.1,18.9-8c11.8-1.6,24.3,1.4,33.2,9.6c7.3,6.6,11.4,16.8,9.9,26.7c-1.7,11.4-9.3,21-18,28.2
			c-15.7,12.6-35,19.9-54.3,24.8c1.1-1.2,2.3-2.3,3.8-3.2c14.7-7.9,29.2-17.1,40-30c6.6-8,11.7-18.4,9.6-29
			c-2.2-12.2-14.1-21.1-26.2-21.8C291.7,252.6,286.2,254.8,280.7,255.9L280.7,255.9z"/>
		<path id="XMLID_19_" fill="#FFFFFF" stroke="#FFFFFF" stroke-width="9.375000e-02" stroke-miterlimit="10" d="M57.4,266
			c20.4-8.8,42.7-14.4,65-14.1c-13,3.8-26.3,7-38.5,12.8c-2.9,1.6-6.2,3-7.9,6c-0.9,2.3,1.6,3.9,3.3,4.7c7.6,3.1,15.9,3.6,24,4.3
			c28.4,1.9,57,0.8,85.3-1c28-1.8,55.8-5.6,83.4-10c-6.1,2.9-12.3,5.8-18,9.4c-2.9,2-6.4,2.6-9.7,3.3c-34,7.6-68.9,9.9-103.5,10.4
			c-13.4,0.1-26.8-0.1-40.1-1c-14.9-1-29.9-2.1-44.4-6c-4.2-1.2-8.7-2.6-12-5.6c-1.7-1.3-1.7-4-0.2-5.6
			C47.7,270,52.8,268.3,57.4,266L57.4,266z"/>
		<path id="XMLID_18_" fill="#FFFFFF" stroke="#FFFFFF" stroke-width="9.375000e-02" stroke-miterlimit="10" d="M83.6,313.5
			c5.8-4.6,12.7-7.1,19.6-9.6c-2.2,2.7-5.3,5.2-5.6,8.9c-0.1,2.3,1.8,4.1,3.7,5.2c3.7,1.9,7.8,2.6,11.9,3.1
			c21.3,2.2,42.9,3.4,64.4,2c19.7-1,39.2-4.2,58.7-7.7c5.3,5,11.7,8.4,18.3,11.4c-23.4,6.9-47.5,10.9-71.8,12.8
			c-22.9,1.6-46.1,1.4-68.9-2.2c-9-1.7-18.2-3.6-26.4-7.8c-3.3-1.8-7.1-4.1-8.1-8C78.7,318.4,81.2,315.4,83.6,313.5L83.6,313.5z"/>
		<path id="XMLID_17_" fill="#FFFFFF" stroke="#FFFFFF" stroke-width="9.375000e-02" stroke-miterlimit="10" d="M96.5,361.9
			c5.1-4.1,11.4-6.2,17.7-8c-2,1.9-5.6,4.2-4,7.4c3,3.9,8.6,4.3,13,5.3c18.8,2.3,37.8,3.9,56.5,2.4c14.2-0.9,28.2-3.4,42.1-5.9
			c8,4.7,16.3,8.7,24.9,12.2c-13.1,5.9-27.2,9.7-41.3,12.3c-23.8,4.2-48.3,4.8-72.2,1c-10.6-1.9-21.3-4.3-30.9-9.6
			c-3.7-2.1-7.6-4.6-9.1-8.7C91.9,367.3,93.9,363.9,96.5,361.9L96.5,361.9z"/>
		<path id="XMLID_16_" fill="#FFFFFF" stroke="#FFFFFF" stroke-width="9.375000e-02" stroke-miterlimit="10" d="M34.9,393.3
			c10.2-3.4,20.8-6.2,31.5-6.6c4.3-0.1,8.8,0.1,12.6,2.3c-12.9,0.8-25.8,4-37.3,9.9c-2.6,1.4-5.4,3.1-6.4,6.1c0,3.4,3.9,4.6,6.4,5.7
			c16.1,6,33.3,7.9,50.2,9.7c50.3,4.2,101,3.1,151.3-1.4c19-2.1,38.1-4.2,56.5-9.4c5.9-2,12.6-4,16.4-9.2c2.3-3.1,0.8-7-1.6-9.7
			c3.8,2.1,9.1,4.8,8.3,9.9c-1.4,5.3-6.9,8.1-11.3,10.7c-14.2,7.2-29.9,10.9-45.4,14.1c-45.2,8.9-91.5,10.9-137.5,9.6
			c-34.7-1.2-69.3-4.6-103.5-10.4c-6.1-1.4-13-2.7-17.4-7.4c-2.9-3.3-0.3-8,2.4-10.4C17.1,400.1,26.1,396.6,34.9,393.3L34.9,393.3z"
			/>
		<path id="XMLID_15_" fill="#FFFFFF" stroke="#FFFFFF" stroke-width="9.375000e-02" stroke-miterlimit="10" d="M311.7,431.3
			c11.2-3.9,23.2-8,31.5-16.9c-1.4,9.7-9.8,16.3-18,20.7c-15.8,8.2-33.4,12-51,15.1c-37.1,5.9-74.8,7.3-112.4,6.7
			c-25.7-0.8-51.5-1.8-76.8-7.1c-6-1.7-12.4-2.8-17.7-6.3c22.4,3.8,45.2,5.3,68,6.2c37.4,1.1,75-0.3,112.2-5
			C269.1,441.7,290.8,438,311.7,431.3L311.7,431.3z"/>
	</g>
</g>
</svg>
