<?xml version="1.0" encoding="utf-8"?>
<!-- Generator: Adobe Illustrator 18.0.0, SVG Export Plug-In . SVG Version: 6.00 Build 0)  -->
<!DOCTYPE svg PUBLIC "-//W3C//DTD SVG 1.1//EN" "http://www.w3.org/Graphics/SVG/1.1/DTD/svg11.dtd">
<svg version="1.1" id="Layer_1" xmlns="http://www.w3.org/2000/svg" xmlns:xlink="http://www.w3.org/1999/xlink" x="0px" y="0px"
	 viewBox="0 0 415.7 465.2" enable-background="new 0 0 415.7 465.2" xml:space="preserve">
<g id="css">
	<g id="_x33__x2B_sheild">
		<g id="shield_2_">
			<polygon id="XMLID_79_" fill="none" stroke="#FFFFFF" stroke-width="4" stroke-miterlimit="10" points="373.4,415.9 208.1,460.4 
				42.7,415.9 4.6,2.6 411.5,2.6 			"/>
			<polygon id="XMLID_78_" display="none" fill="#3C9CD7" points="208.1,36.1 208.1,424.9 208.4,425 342.2,389 373.1,36.1 			"/>
		</g>
		<g id="_x33_">
			<polygon id="XMLID_73_" fill="#FFFFFF" points="207.9,139.4 89.6,188.7 93.5,237.5 207.9,188.6 329.6,136.6 334.6,86.7 			"/>
			<linearGradient id="XMLID_23_" gradientUnits="userSpaceOnUse" x1="148.7503" y1="237.5028" x2="148.7503" y2="139.4378">
				<stop  offset="0.3865" style="stop-color:#D1D3D4;stop-opacity:0"/>
				<stop  offset="1" style="stop-color:#D1D3D4"/>
			</linearGradient>
			<polygon id="XMLID_72_" fill="url(#XMLID_23_)" points="89.6,188.7 93.5,237.5 207.9,188.6 207.9,139.4 			"/>
			<linearGradient id="XMLID_34_" gradientUnits="userSpaceOnUse" x1="271.2769" y1="188.5915" x2="271.2769" y2="86.6579">
				<stop  offset="0.3865" style="stop-color:#D1D3D4;stop-opacity:0"/>
				<stop  offset="1" style="stop-color:#D1D3D4"/>
			</linearGradient>
			<polygon id="XMLID_71_" fill="url(#XMLID_34_)" points="334.6,86.7 207.9,139.4 207.9,188.6 329.6,136.6 			"/>
			<linearGradient id="XMLID_35_" gradientUnits="userSpaceOnUse" x1="89.7718" y1="281.2419" x2="325.2988" y2="281.2419">
				<stop  offset="0" style="stop-color:#E8E7E5"/>
				<stop  offset="1" style="stop-color:#FFFFFF"/>
			</linearGradient>
			<polygon id="XMLID_70_" fill="url(#XMLID_35_)" points="89.8,188.7 93.7,237.5 269.2,238.1 265.3,303.1 207.5,319.4 152,305.4 
				148.7,265 97.1,265 103.8,342.9 208.1,373.8 311.8,343.5 325.3,188.7 			"/>
			<g id="XMLID_67_" opacity="5.000000e-02">
				<polygon id="XMLID_69_" points="207.9,188.7 89.6,188.7 93.5,237.5 207.9,237.9 				"/>
				<polygon id="XMLID_68_" points="207.9,319.2 207.4,319.4 151.8,305.4 148.5,265 96.9,265 103.6,342.9 207.9,373.8 				"/>
			</g>
			<linearGradient id="XMLID_36_" gradientUnits="userSpaceOnUse" x1="78.9354" y1="111.6116" x2="334.6431" y2="111.6116">
				<stop  offset="0" style="stop-color:#E8E7E5"/>
				<stop  offset="1" style="stop-color:#FFFFFF"/>
			</linearGradient>
			<polygon id="XMLID_66_" fill="url(#XMLID_36_)" points="78.9,86.7 334.6,86.7 329.6,136.6 85.1,136.6 			"/>
			<polygon id="XMLID_65_" opacity="5.000000e-02" points="207.9,86.7 78.9,86.7 85.1,136.6 207.9,136.6 			"/>
		</g>
	</g>
</g>
</svg>
