<?xml version="1.0" encoding="utf-8"?>
<!-- Generator: Adobe Illustrator 18.0.0, SVG Export Plug-In . SVG Version: 6.00 Build 0)  -->
<!DOCTYPE svg PUBLIC "-//W3C//DTD SVG 1.1//EN" "http://www.w3.org/Graphics/SVG/1.1/DTD/svg11.dtd">
<svg version="1.1" id="Layer_1" xmlns="http://www.w3.org/2000/svg" xmlns:xlink="http://www.w3.org/1999/xlink" x="0px" y="0px"
	 viewBox="0 0 419 469.5" enable-background="new 0 0 419 469.5" xml:space="preserve">
<g id="html">
	<g id="_x35__x2B_sheild">
		<g id="shield">
			<polygon id="XMLID_33_" fill="none" stroke="#FFFFFF" stroke-width="3" stroke-miterlimit="10" points="43.1,419.3 6.1,4.1 
				412.9,4.1 375.9,419.3 209.2,465.5 			"/>
			<polygon id="XMLID_32_" display="none" fill="#F1662A" points="209.5,430.2 344.1,392.8 375.8,38 209.5,38 			"/>
		</g>
		<g id="_x35_">
			<polygon id="XMLID_31_" fill="#EBEBEB" points="209.5,193.6 142.1,193.6 137.4,141.5 209.5,141.5 209.5,90.5 209.3,90.5 
				81.8,90.5 83,104.2 95.5,244.6 209.5,244.6 			"/>
			<polygon id="XMLID_30_" fill="#EBEBEB" points="209.5,325.9 209.3,326 152.6,310.7 148.9,270 121.4,270 97.8,270 104.9,350 
				209.3,379 209.5,378.9 			"/>
			<polygon id="XMLID_25_" fill="#FFFFFF" points="209.3,193.6 209.3,244.6 272,244.6 266.1,310.6 209.3,326 209.3,379 313.7,350 
				314.5,341.4 326.5,207.3 327.7,193.6 314,193.6 			"/>
			<polygon id="XMLID_24_" fill="#FFFFFF" points="209.3,90.5 209.3,122.2 209.3,141.4 209.3,141.5 332.2,141.5 332.2,141.5 
				332.4,141.5 333.4,130 335.7,104.2 336.9,90.5 			"/>
		</g>
	</g>
</g>
</svg>
