<?xml version="1.0" encoding="utf-8"?>
<!-- Generator: Adobe Illustrator 18.0.0, SVG Export Plug-In . SVG Version: 6.00 Build 0)  -->
<!DOCTYPE svg PUBLIC "-//W3C//DTD SVG 1.1//EN" "http://www.w3.org/Graphics/SVG/1.1/DTD/svg11.dtd">
<svg version="1.1" id="Layer_1" xmlns="http://www.w3.org/2000/svg" xmlns:xlink="http://www.w3.org/1999/xlink" x="0px" y="0px"
	 viewBox="0 0 463.4 467.2" enable-background="new 0 0 463.4 467.2" xml:space="preserve">
<g id="js">
	
		<rect id="background" x="3.1" y="3.4" fill="none" stroke="#FFFFFF" stroke-width="3" stroke-miterlimit="10" width="456.1" height="456.1"/>
	<g id="XMLID_210_">
		<path id="j" fill="#FFFFFF" d="M123.1,384.5l34.9-21.1c6.7,11.9,12.9,22,27.6,22c14.1,0,23-5.5,23-26.9V212.8h42.9v146.4
			c0,44.4-26,64.6-64,64.6C153.1,423.7,133.2,406,123.1,384.5"/>
		<path id="s" fill="#FFFFFF" d="M274.7,379.9l34.9-20.2c9.2,15,21.1,26,42.3,26c17.8,0,29.1-8.9,29.1-21.1
			c0-14.7-11.6-19.9-31.2-28.5l-10.7-4.6c-30.9-13.2-51.4-29.7-51.4-64.6c0-32.1,24.5-56.6,62.8-56.6c27.3,0,46.8,9.5,60.9,34.3
			L377.8,266c-7.3-13.2-15.3-18.4-27.6-18.4c-12.6,0-20.5,8-20.5,18.4c0,12.9,8,18.1,26.3,26l10.7,4.6c36.4,15.6,57,31.5,57,67.4
			c0,38.6-30.3,59.7-71,59.7C312.9,423.7,287.2,404.8,274.7,379.9"/>
	</g>
</g>
</svg>
