<?xml version="1.0" encoding="utf-8"?>
<!-- Generator: Adobe Illustrator 18.0.0, SVG Export Plug-In . SVG Version: 6.00 Build 0)  -->
<!DOCTYPE svg PUBLIC "-//W3C//DTD SVG 1.1//EN" "http://www.w3.org/Graphics/SVG/1.1/DTD/svg11.dtd">
<svg version="1.1" id="Layer_1" xmlns="http://www.w3.org/2000/svg" xmlns:xlink="http://www.w3.org/1999/xlink" x="0px" y="0px"
	 viewBox="0 0 674.7 466.6" enable-background="new 0 0 674.7 466.6" xml:space="preserve">
<g id="php">
	<g id="XMLID_268_">
		<g id="XMLID_397_" display="none">
			<polygon id="XMLID_398_" display="inline" fill="#FFFFFF" stroke="#FBFBFB" stroke-miterlimit="10" points="649.9,106.6 
				649.9,120.8 642,127 627.7,123.6 617.3,120.6 608,113 608,108.7 607.3,105.3 617.7,105.3 636.8,106.6 			"/>
		</g>
		<g id="XMLID_395_" display="none">
			<polygon id="XMLID_396_" display="inline" fill="#FFFFFF" stroke="#FBFBFB" stroke-miterlimit="10" points="635.8,83.8 
				601.7,89.4 597.4,95.2 602.8,99.6 628.6,105.3 655.7,105.3 662.7,101.6 667.3,94.6 665.2,87.2 657.6,85.2 647.2,83.1 			"/>
		</g>
		<g id="XMLID_393_" display="none">
			<polygon id="XMLID_394_" display="inline" fill="#FFFFFF" stroke="#FBFBFB" stroke-miterlimit="10" points="640.1,65.5 
				616.6,74.1 615.3,80.8 629.5,80.8 642.4,80.8 647.2,78.4 646.2,71.4 			"/>
		</g>
		<g id="XMLID_292_" display="none">
			<g id="XMLID_380_" display="inline">
				<g id="XMLID_381_">
					<defs>
						<path id="XMLID_382_" d="M674.7,94c0-11.6-13.2-15.6-21.7-16.9c0.6-3.4,0.6-7.6-1.5-11.2c-1.6-2.8-5.1-6.4-12.6-6.9
							c-0.1,0-0.3,0-0.4,0c-19.6,0-35.8,16.7-41,22.7h-55.6c-12.2-12.6-26.6-23.2-43.2-31.3C471.6,36.8,439.5,30,403.5,30
							c0,0-0.1,0-0.1,0l-117.1,1.9c-19.8-28-41.9-29.8-61.1-27.6c-5,0.6-12.3,3.2-20.4,7c-4.2-4-13-9-31.1-9
							c-25,0-54.9,30.9-61.5,38.2c-41.8,6.2-72.2,21-90.7,44.3C0.8,110.7,0.4,141.1,0.2,155.7c0,2.7-0.1,5.1-0.2,6.6
							c0,0.2,0,0.4,0,0.5c0,2.3,1,232.6,1,246.5c0,0.9,0,1.8,0,2.7c-0.1,8.5-0.2,19.1,7.7,27.1c6.6,6.7,17.6,10,33.3,10
							c16,0,27.7-4,34.5-11.8c6.3-7.2,6.4-15.3,6.2-17.7l9.8-109.1c1.5-17.5,7.3-29.7,17.5-36.2c7.9-5.1,18.1-6.5,28.6-6v108.9
							c-0.1,1.9-0.6,15.2,5.8,29.3c6.1,13.6,19.7,30.3,50.1,34.4c1.2,1.7,2.7,3.4,4.3,5.1c13.5,13.6,37,20.6,69.9,20.6
							c31.7,0,54.3-7.6,67.2-22.7c12.4-14.5,11.2-30.8,10.9-33.9v-73c4.8,1,12.2,2.1,21.9,2.5v51.9c0,1.3,0,12.8,7.5,24.7
							c7,11.1,21.9,24.6,53.5,26.9c14.1,13.2,36.9,19.9,67.8,19.9c32.6,0,55.6-7.5,68.4-22.2c11.1-12.8,10.4-26.6,10.1-29.3V251.5
							c0-1.2-0.4-2.3-1-3.2c17-46.2,12.3-98.6-12.4-139.7h35.5c4.4,6.1,16.8,20.4,38,21.5c0.1,0,0.2,0,0.3,0c4.2,0,17.2,0,20.6-8.6
							c1.5-3.8,0.5-7.7-1.2-10.9C664.1,108.8,674.7,104.4,674.7,94z M642.2,71.2c0.6,1.1,0.5,3.2,0,5.2c-6.1,0-15.8,0.3-25.7,2.1
							c6-4.6,13.7-8.8,21.8-8.8C639.6,69.8,641.6,70.2,642.2,71.2z M587.5,92.4c-0.5,1.2-0.6,2.7-0.1,4c0.2,0.5,0.4,1,0.7,1.5h-32.5
							c-1.4-1.9-2.8-3.7-4.2-5.5H587.5z M636.5,119.4c-11.3-0.6-19.4-6-24.4-10.9c2.7,0.5,5.7,0.9,9,1.3c8.7,1.1,17.1,1.6,22.2,1.8
							c2.1,2.3,3.6,4.9,3.6,6C646.5,118,644.3,119.4,636.5,119.4z M648.2,101.1c-1.6,0-12.7-0.4-24.4-1.7
							c-12.5-1.4-19.1-3.2-22.7-4.6c13.3-7.5,37.5-8,46.8-7.4c0.1,0,0.1,0,0.2,0C655.4,88,664,90.5,664,94
							C664,97.5,655.5,100.2,648.2,101.1z"/>
					</defs>
					<use xlink:href="#XMLID_382_"  overflow="visible" fill="#FFFFFF"/>
					<clipPath id="XMLID_23_">
						<use xlink:href="#XMLID_382_"  overflow="visible"/>
					</clipPath>
					<g clip-path="url(#XMLID_23_)">
						
							<image overflow="visible" width="2812" height="58" id="XMLID_392_" xlink:href="31F270B5E7DA38E3.png"  transform="matrix(0.24 0 0 0.24 7.055964e-05 87.1432)">
						</image>
					</g>
					<g clip-path="url(#XMLID_23_)">
						
							<image overflow="visible" width="2812" height="46" id="XMLID_391_" xlink:href="31F270B5E7DA38E1.png"  transform="matrix(0.24 0 0 0.24 7.055964e-05 108.5305)">
						</image>
					</g>
					<g clip-path="url(#XMLID_23_)">
						
							<image overflow="visible" width="2812" height="23" id="XMLID_390_" xlink:href="31F270B5E7DA38E7.png"  transform="matrix(0.24 0 0 0.24 7.055964e-05 92.4169)">
						</image>
					</g>
					<g clip-path="url(#XMLID_23_)">
						
							<image overflow="visible" width="2812" height="37" id="XMLID_389_" xlink:href="31F270B5E7DA38E0.png"  transform="matrix(0.24 0 0 0.24 7.055964e-05 69.7076)">
						</image>
					</g>
					<g clip-path="url(#XMLID_23_)">
						
							<image overflow="visible" width="2812" height="1936" id="XMLID_388_" xlink:href="31F270B5E7DA38EE.png"  transform="matrix(0.24 0 0 0.24 7.055964e-05 2.1858)">
						</image>
					</g>
					<use xlink:href="#XMLID_382_"  overflow="visible" fill="none" stroke="#FBFBFB" stroke-miterlimit="10"/>
				</g>
			</g>
			<g id="XMLID_297_" display="inline">
				<g id="XMLID_378_">
					<path id="XMLID_379_" fill="#FFFFFF" stroke="#FBFBFB" stroke-miterlimit="10" d="M157.8,415.3c0,0-14.2-1.8-13.6-26.9
						c3-24.4,11.1-38,16.9-38c5.8,0,10.9,19.2,10.9,19.2C159.4,372.8,153.7,406.3,157.8,415.3z"/>
				</g>
				<g id="XMLID_376_">
					<path id="XMLID_377_" fill="#FFFFFF" stroke="#FBFBFB" stroke-miterlimit="10" d="M172,422.3c0,0-12.5,0-12.2-18.8
						c2.2-19.7,9.5-30.3,12.2-30.3c2.7,0,8.6,5.9,12.7,31.2C184.1,422.4,172,422.3,172,422.3z"/>
				</g>
				<g id="XMLID_372_">
					<path id="XMLID_373_" fill="#FFFFFF" stroke="#FBFBFB" stroke-miterlimit="10" d="M160.4,419l-3.2-0.4
						c-0.7-0.1-16.5-2.4-15.9-30.2l0-0.2c3-24.1,11.2-41.6,19.5-41.7c6.9,0,11.9,16.5,13.3,21.6l0.5,1.7l-1.8,0.5
						c-3.3,0.8-6.4,4.2-9,9.8c-5.7,12-7.4,30.1-4.7,35.9L160.4,419z M144.9,388.6c-0.3,17.2,6,23.3,9.9,25.4
						c-1.7-8.9,0.8-24.8,5.8-35.3c2.7-5.8,6-9.5,9.6-11.1c-2.5-8.6-6.7-17.3-9.4-17.3C156.2,350.2,148,363.5,144.9,388.6z"/>
				</g>
				<g id="XMLID_368_">
					<path id="XMLID_369_" fill="#FFFFFF" stroke="#FBFBFB" stroke-miterlimit="10" d="M172.4,425.3L172.4,425.3L172.4,425.3
						c-0.2,0-5.1-0.1-9.2-4.2c-3.7-3.8-5.6-9.7-5.5-17.5l0-0.2c2.3-20.8,10.1-33.6,14.6-33.6c2.2,0,10,2.5,15.2,34.4l0,0.2l0,0.2
						C187,425.1,173,425.3,172.4,425.3z M161.3,403.8c-0.1,6.7,1.4,11.7,4.4,14.8c3,3.1,6.5,3.2,6.7,3.2l0,1.8v-1.8
						c0.5,0,11-0.2,11.6-17c-4.2-25.5-10.1-31.1-11.6-31.2C170.4,374.2,163.4,384.4,161.3,403.8z"/>
				</g>
				<g id="XMLID_366_">
					<path id="XMLID_367_" fill="#FFFFFF" stroke="#FBFBFB" stroke-miterlimit="10" d="M173.9,425.6c0,0,9.9-4.7,12.6-14.6
						c-0.8,12.9,3.3,19.7,3.3,19.7S180.1,429.1,173.9,425.6z"/>
				</g>
				<g id="XMLID_364_">
					<path id="XMLID_365_" fill="#FFFFFF" stroke="#FBFBFB" stroke-miterlimit="10" d="M213.2,445.7c0,0-21.3-2.2-18.5-27.8
						c6.2-25.5,17.7-34.1,24.1-32.6C208.9,407.6,203.2,432.4,213.2,445.7z"/>
				</g>
				<g id="XMLID_362_">
					<path id="XMLID_363_" fill="#FFFFFF" stroke="#FBFBFB" stroke-miterlimit="10" d="M240.8,453.3c0,0-17,6.9-26-8.3
						c-2-3.4-2.3-8.7-3.4-14.5c-2.2-30.8,18.1-65.1,26.9-55.1c8.8,10,9.1,14.9,11.3,19.9C243.9,401.5,224,429.6,240.8,453.3z"/>
				</g>
				<g id="XMLID_360_">
					<path id="XMLID_361_" fill="#FFFFFF" stroke="#FBFBFB" stroke-miterlimit="10" d="M251.1,454.9c0,0-17.6-1.7-14.9-25.9
						c5-24.6,14.4-32,17-31.9c2.6,0.1,10.7,5.4,14.2,32.5C269.9,454.2,251.1,454.9,251.1,454.9z"/>
				</g>
				<g id="XMLID_356_">
					<path id="XMLID_357_" fill="#FFFFFF" stroke="#FBFBFB" stroke-miterlimit="10" d="M216.2,449.4l-4.1-0.4
						c-0.4,0-9.5-1.1-15.8-8.8c-4.5-5.6-6.3-13.1-5.3-22.3l0-0.2c6-24.7,17.1-35.7,25.4-35.7c0.7,0,1.4,0.1,2,0.2l2.1,0.5l-0.9,2
						c-12.4,27.7-14.6,50.1-6,61.5L216.2,449.4z M194.6,418.4c-0.9,8.2,0.6,14.8,4.5,19.6c2.9,3.6,6.6,5.5,9.3,6.4
						c-8.4-16.6,0.1-42.7,7-58.8C210.2,386.6,200.5,394.3,194.6,418.4z"/>
				</g>
				<g id="XMLID_352_">
					<path id="XMLID_353_" fill="#FFFFFF" stroke="#FBFBFB" stroke-miterlimit="10" d="M234.5,460.9c-7.7,0-21.2-3.6-25.8-27.4
						l0-0.2c-1.6-22.8,7.8-47.5,17.7-58.2c3.2-3.5,6.3-5.2,9.2-5.2c2,0,3.8,0.9,5.3,2.5c7.8,8.9,9.6,14.1,11.3,18.7
						c0.4,1.2,0.8,2.2,1.3,3.3l0.5,1.1l-0.8,0.9c-7.7,8.2-26,36.9-9.4,60.4l1.3,1.9l-2.2,0.8C242.8,459.6,239.3,460.9,234.5,460.9z
						 M212.2,433c3.9,20.1,14.2,24.3,22.2,24.3c2,0,3.7-0.3,4.9-0.5c-15.1-24.2,1.9-52.5,10.3-62c-0.3-0.8-0.6-1.6-0.9-2.4
						c-1.5-4.3-3.3-9.2-10.6-17.5c-0.8-0.9-1.6-1.3-2.6-1.3c-1.8,0-4.1,1.4-6.6,4.1C219.8,387.5,210.8,411.4,212.2,433z"/>
				</g>
				<g id="XMLID_348_">
					<path id="XMLID_349_" fill="#FFFFFF" stroke="#FBFBFB" stroke-miterlimit="10" d="M252.1,458.8l-0.1,0c-0.3,0-7.3-0.8-12.4-7.1
						c-4.3-5.3-5.9-12.7-4.8-22.1l0-0.2c5.4-26.4,15.5-34.9,19.5-34.9l0.1,0c4.5,0.2,13,7.9,16.6,35.7c0.9,9.4-0.9,16.7-5.3,21.8
						c-5.6,6.4-13.3,6.8-13.6,6.8L252.1,458.8z M238.3,430.1c-0.9,8.3,0.4,14.8,4,19.3c3.8,4.7,9,5.7,9.9,5.8
						c0.9-0.1,6.8-0.7,11-5.6c3.7-4.3,5.2-10.7,4.4-18.9c-3.5-26.7-11.3-32.4-13.2-32.5C252.9,398.3,243.6,404.7,238.3,430.1z"/>
				</g>
				<g id="XMLID_346_">
					<path id="XMLID_347_" fill="#FFFFFF" stroke="#FBFBFB" stroke-miterlimit="10" d="M386.6,415.4c0,0-14.2-1.8-13.6-26.9
						c3-24.4,11.1-38,16.9-38c5.8,0,10.9,19.2,10.9,19.2C388.2,372.9,382.5,406.5,386.6,415.4z"/>
				</g>
				<g id="XMLID_342_">
					<path id="XMLID_343_" fill="#FFFFFF" stroke="#FBFBFB" stroke-miterlimit="10" d="M389.6,419.4l-3.2-0.4
						c-0.7-0.1-16.5-2.4-15.9-30.2l0-0.2c3-24.1,11.2-41.7,19.6-41.7c7,0,11.9,16.5,13.3,21.6l0.5,1.7l-1.8,0.5
						c-3.3,0.8-6.4,4.2-9,9.8c-5.7,12-7.4,30.1-4.7,35.9L389.6,419.4z M374,389c-0.3,17.2,6,23.3,9.9,25.4
						c-1.7-8.9,0.8-24.8,5.8-35.4c2.8-5.8,6-9.5,9.7-11.2c-2.5-8.6-6.7-17.3-9.4-17.3C385.3,350.5,377.2,363.9,374,389z"/>
				</g>
				<g id="XMLID_340_">
					<path id="XMLID_341_" fill="#FFFFFF" stroke="#FBFBFB" stroke-miterlimit="10" d="M400.7,425.3c0,0-13.7,0-13.4-20.6
						c2.4-21.6,10.4-33.2,13.4-33.2s9.4,6.5,13.9,34.2C414.1,425.5,400.7,425.3,400.7,425.3z"/>
				</g>
				<g id="XMLID_336_">
					<path id="XMLID_337_" fill="#FFFFFF" stroke="#FBFBFB" stroke-miterlimit="10" d="M400.8,427.1L400.8,427.1L400.8,427.1
						c-0.2,0-5.3-0.1-9.5-4.4c-3.9-3.9-5.8-10-5.7-18.1l0-0.2c2.3-21.2,10.5-34.8,15.1-34.8c2.3,0,10.3,2.6,15.7,35.7l0,0.2l0,0.2
						C415.9,426.8,401.4,427.1,400.8,427.1z M389.2,404.8c-0.1,7,1.4,12.2,4.6,15.4c3.2,3.3,6.8,3.3,7,3.3l0,1.8v-1.8
						c0.5,0,11.5-0.2,12.1-17.7c-4.9-29.8-11.5-32.3-12.1-32.5C398.7,374,391.4,384.5,389.2,404.8z"/>
				</g>
				<g id="XMLID_334_">
					<path id="XMLID_335_" fill="#FFFFFF" stroke="#FBFBFB" stroke-miterlimit="10" d="M400.3,427.1c0,0,14.2-4.9,16.4-18.5
						c0.8,17.4,5.6,23.1,5.6,23.1S409.1,430.9,400.3,427.1z"/>
				</g>
				<g id="XMLID_332_">
					<path id="XMLID_333_" fill="#FFFFFF" stroke="#FBFBFB" stroke-miterlimit="10" d="M441.8,441.9c0,0-21.3-1.8-19-27.4
						c5.7-25.6,17-34.4,23.5-33C436.8,403.9,431.6,428.8,441.8,441.9z"/>
				</g>
				<g id="XMLID_328_">
					<path id="XMLID_329_" fill="#FFFFFF" stroke="#FBFBFB" stroke-miterlimit="10" d="M449.3,447.1l-4.1-0.2
						c-0.4,0-9.6-0.4-16.3-7.7c-4.9-5.3-7.1-12.7-6.7-22l0-0.2c4.6-25.8,15.2-37.4,23.7-37.4c0.5,0,1,0,1.4,0.1l2.1,0.4l-0.7,2
						c-10.6,28.6-11.4,51.1-2.1,61.9L449.3,447.1z M425.7,417.4c-0.4,8.3,1.6,14.8,5.7,19.3c3.1,3.4,6.9,5.1,9.8,5.9
						c-9.5-16.1-2.7-42.7,3.2-59.3C438.7,384.7,429.8,394.3,425.7,417.4z"/>
				</g>
				<g id="XMLID_326_">
					<path id="XMLID_327_" fill="#FFFFFF" stroke="#FBFBFB" stroke-miterlimit="10" d="M469.6,449.8c0,0-23.3,9-29.4-22.8
						c-2.2-30.8,18.1-65.1,26.9-55.1c8.8,10,9.1,14.9,11.3,19.9C472.7,398,452.8,426.1,469.6,449.8z"/>
				</g>
				<g id="XMLID_322_">
					<path id="XMLID_323_" fill="#FFFFFF" stroke="#FBFBFB" stroke-miterlimit="10" d="M462.5,453.6c-7.3,0-20.1-3.4-24.4-25.9
						l0-0.2c-1.5-21.5,7.3-44.8,16.7-54.9c3.1-3.3,6-5,8.8-5c1.9,0,3.7,0.8,5.1,2.4c7.3,8.4,9.1,13.3,10.6,17.6
						c0.4,1.1,0.8,2.1,1.2,3.1l0.5,1.1l-0.8,0.9c-7.3,7.7-24.5,34.7-8.8,56.8l1.3,1.9l-2.2,0.8C470.3,452.3,467,453.6,462.5,453.6z
						 M441.6,427.1C445.3,446,455,450,462.5,450c1.8,0,3.3-0.2,4.5-0.5c-14.1-22.8,1.8-49.3,9.7-58.3c-0.3-0.7-0.6-1.5-0.8-2.3
						c-1.4-4-3.1-8.6-10-16.5c-0.7-0.8-1.5-1.2-2.4-1.2c-1.7,0-3.8,1.4-6.1,3.8C448.8,384.3,440.3,406.9,441.6,427.1z"/>
				</g>
				<g id="XMLID_320_">
					<path id="XMLID_321_" fill="#FFFFFF" stroke="#FBFBFB" stroke-miterlimit="10" d="M482.2,451.1c0,0-17.2-1-15.4-24.7
						c4-24.2,12.9-31.7,15.4-31.7c2.5,0,10.6,4.8,15.1,31.2C500.5,449.7,482.2,451.1,482.2,451.1z"/>
				</g>
				<g id="XMLID_316_">
					<path id="XMLID_317_" fill="#FFFFFF" stroke="#FBFBFB" stroke-miterlimit="10" d="M482.2,454.8l-0.1,0c-0.3,0-7.3-0.5-12.6-6.6
						c-4.4-5.1-6.3-12.4-5.6-21.8l0-0.2c4.4-26.5,14.4-35.4,18.3-35.4c4.4,0,13.2,7.3,17.9,34.9c1.3,9.3-0.2,16.6-4.5,21.8
						c-5.3,6.6-13,7.2-13.3,7.2L482.2,454.8z M467.5,426.8c-0.6,8.3,1,14.8,4.7,19.1c4,4.5,9.1,5.2,10,5.3c0.9-0.1,6.7-1,10.7-5.9
						c3.5-4.4,4.8-10.8,3.7-19c-4.5-26.4-12.4-31.8-14.3-31.8C480.7,394.7,471.7,401.4,467.5,426.8z"/>
				</g>
				<g id="XMLID_298_">
					<g id="XMLID_314_">
						<path id="XMLID_315_" fill="#FFFFFF" stroke="#FBFBFB" stroke-miterlimit="10" d="M138.7,264.7c-1.6,0-3-1.1-3.5-2.6
							c-0.5-1.9,0.6-3.9,2.5-4.4c0.2,0,9.1-2.7,18-12.4c11.8-13,18.1-32.8,18.1-57.3c0-2,1.6-3.6,3.6-3.6c2,0,3.6,1.6,3.6,3.6
							c0,33.5-11.1,52.5-20.3,62.5c-10.3,11.1-20.6,14-21.1,14.1C139.3,264.7,139,264.7,138.7,264.7z"/>
					</g>
					<g id="XMLID_312_">
						<path id="XMLID_313_" fill="#FFFFFF" stroke="#FBFBFB" stroke-miterlimit="10" d="M175.3,190.3c-11.1,0-19.6-9.4-20-9.8
							c-1.3-1.5-1.2-3.7,0.3-5.1c1.5-1.3,3.7-1.2,5.1,0.3c0.1,0.1,7.5,8.2,15.9,7.3c5.1-0.5,9.8-4.4,14-11.5c1-1.7,3.2-2.3,4.9-1.3
							c1.7,1,2.3,3.2,1.3,4.9c-5.4,9.2-12,14.3-19.5,15.1C176.6,190.3,176,190.3,175.3,190.3z"/>
					</g>
					<g id="XMLID_310_">
						<path id="XMLID_311_" fill="#FFFFFF" stroke="#FBFBFB" stroke-miterlimit="10" d="M114.1,103.4c0,0,2.5,1.5,4.1-1.6
							c1.6-3-2.9-3.5-2.9-3.5s-39.9-13.8-62.9,13.4c-3.2,5.1,3.5,8.4,3.5,8.4s3.7,2.6,8.1-2.9C68.3,111.7,88.2,96.2,114.1,103.4z"/>
					</g>
					<g id="XMLID_299_">
						<g id="XMLID_308_">
							<path id="XMLID_309_" fill="#FFFFFF" stroke="#FBFBFB" stroke-miterlimit="10" d="M92.6,143.1c0,0,23-10.4,29.5,10.3
								c6.8,22.8-35.9,38.8-42.5,15.5c-17.1-18.7,4.1-42.8,32.1-42.3C113.9,131.2,92.6,143.1,92.6,143.1z"/>
						</g>
						<g id="XMLID_306_">
							<path id="XMLID_307_" fill="#FFFFFF" stroke="#FBFBFB" stroke-miterlimit="10" d="M118.2,161.2c0,8.3-6.6,14.4-16.5,16.3
								c-9.4,1.3-20-1.7-20-13.6c0-12,10.8-20.4,20-20.4C110.8,143.4,120.3,150.2,118.2,161.2z"/>
						</g>
						<g id="XMLID_304_">
							<path id="XMLID_305_" fill="#FFFFFF" stroke="#FBFBFB" stroke-miterlimit="10" d="M118.2,161.2c0,8.3-7.4,15.1-16.5,15.1
								c-9.1,0-16.5-4.1-16.5-12.4c0-8.3,7.4-17.8,16.5-17.8C110.8,146.1,118.2,149.8,118.2,161.2z"/>
						</g>
						<g id="XMLID_302_">
							<path id="XMLID_303_" fill="#FFFFFF" stroke="#FBFBFB" stroke-miterlimit="10" d="M118,163.6c0,0-1.4-14.1-12.2-14.1
								c-8.7-0.3-9.6,5.9-9.6,5.9l7.2,4.3l-6.7,4.5c0,0,5.8,12.2,17.6,6.8C117.4,167.8,118,163.6,118,163.6z"/>
						</g>
						<g id="XMLID_300_">
							
								<ellipse id="XMLID_301_" transform="matrix(0.9499 -0.3125 0.3125 0.9499 -44.0645 42.8417)" fill="#FFFFFF" stroke="#FBFBFB" stroke-miterlimit="10" cx="111.6" cy="158.9" rx="3.2" ry="4.3"/>
						</g>
					</g>
				</g>
			</g>
			<g id="XMLID_293_" display="inline" opacity="0.5">
				<g id="XMLID_294_">
					<defs>
						<path id="XMLID_295_" d="M286.1,41.1l7.2,21.5l93.6-3.2c89.3-5,155.3,26.2,185.1,80.7C556.5,87.4,495.5,35,412.7,35H286.1
							V41.1z"/>
					</defs>
					<use xlink:href="#XMLID_295_"  overflow="visible" fill="#FFFFFF"/>
					<clipPath id="XMLID_34_">
						<use xlink:href="#XMLID_295_"  overflow="visible"/>
					</clipPath>
					<g clip-path="url(#XMLID_34_)">
						
							<image overflow="visible" width="1192" height="438" id="XMLID_296_" xlink:href="31F270B5E7DA38EF.png"  transform="matrix(0.24 0 0 0.24 286.0847 35.0457)">
						</image>
					</g>
					<use xlink:href="#XMLID_295_"  overflow="visible" fill="none" stroke="#FBFBFB" stroke-miterlimit="10"/>
				</g>
			</g>
		</g>
		<g id="XMLID_281_">
			<g id="XMLID_288_">
				<path id="XMLID_289_" fill="#FFFFFF" stroke="#FBFBFB" stroke-miterlimit="10" d="M254,254.1h13.5c0,0,4.8,0.6,5.9-5.5
					c1.2-6.1,3.5-18.7,3.5-18.7s-0.4-4.8,7.4-4.8c17.6,0.3,57.2,4.8,68-38.5c0.2-9.8,10.6-42.8-43.9-42.7
					c-9.1,7.4-4.2,16.9-4.2,16.9s28.1-2.4,24.3,18.6c-3.8,21-10.8,25.8-25.7,27.4c-14.9,1.6-22.8,3.5-20.3-7.8
					c-18.2,5.9-25.5,11.4-25.5,11.4l-7.1,34.1C250,244.5,246.8,254.1,254,254.1z"/>
			</g>
			<g id="XMLID_286_">
				<path id="XMLID_287_" fill="#FFFFFF" stroke="#FBFBFB" stroke-miterlimit="10" d="M375.3,122.2c0,0,0.1-7.6,5.1-7.6
					c5,0,16.3,0,16.3,0s4.2-0.2,2,8.7c-2.2,9-3,14.3-3,14.3s-1.8,6.3,4.6,6.3s19.2,0,19.2,0c20.9,1.6,33.3,7.1,28.8,29.8l-9,45.7
					c0,0-0.5,5.6-5.6,5.6c-5.1,0-14.8,0-14.8,0s-4.5,0.2-3.8-4.6c0.7-4.8,8.5-43.9,8.5-43.9s5-15.1-10.6-15.1c-15.6,0-13.7,0-13.7,0
					s-9.3-2-9.7,8.4l-9.9,48.5c0,0,0.6,6.7-7.6,6.7c-8.2,0-12.2,0-12.2,0s-5.8,0.2-3.7-6.8L375.3,122.2z"/>
			</g>
			<g id="XMLID_264_">
				<path id="XMLID_291_" display="none" fill="#FFFFFF" stroke="#FBFBFB" stroke-miterlimit="10" d="M511.9,136.2h-36.7
					c0,0-13.6-1.6-16.3,12.8l-2.2,11.5c0,0,1.7-24.3-39.6-24.3h-13l2.7-14.8c0,0,4.2-14.7-10.5-14.7c-14.7,0-14.7,0-14.7,0
					s-11.1-0.6-13.6,12c-2.5,12.6-8.4,44-8.4,44s-2.4-26.2-49.6-26.2c-15.4,13.7-7.5,32.4-7.5,32.4l9.1,0.4c0,0,11.4-0.4,8.6,11
					c-2.7,11.4-3.7,19.8-29.3,19.8l0.1-7.1c0,0-40.3,13.9-43.3,22l-6.3,31.2c0,0-3.5,15.8,9.4,15.8c12.9,0,17.5,0,17.5,0
					s10.3,0.6,12.7-12.2l3.2-16.9h16c0,0,31,2.4,50.1-22.6c-4.5,13.3-1.1,22.5,9.7,22.5c10.8,0,14.2,0,14.2,0s12.6,0.8,14.5-17
					l9-45.9h15.7c0,0,3.6-0.2,2.7,5.3l-7.8,40.3c0,0-4.6,17.2,10.4,17.2c15,0,15.7,0,15.7,0s6.4,0.8,9.1-4.2l-3.5,18.6
					c0,0-4.1,14.8,10,14.8H467c0,0,10.4,1.9,12.6-14.1l2.7-15.5h12.3c54.2,0,64.9-35.4,64.9-57.2
					C559.5,175.2,562.1,136.2,511.9,136.2z M497.4,199.4H489l6.1-29.9h13.5C526.2,168.2,520.1,200.7,497.4,199.4z"/>
				<g id="XMLID_282_">
					<path id="XMLID_1160_" fill="#FFFFFF" stroke="#FFFFFF" stroke-width="4" stroke-miterlimit="10" d="M514.5,142.7
						c-13.4,0-40.3,0.1-40.3,0.1s-5.4-1.2-7.4,6.7l-19,96.8c0,0-2.1,6.9,2.9,6.9c5.5,0,14.9,0,14.9,0s5-0.1,5.9-5.7
						c0.9-5.6,3.1-17.1,3.1-17.1s0.2-6.4,8.2-6.4c8,0,14.9,0,14.9,0c32.7,0.5,52.1-20.3,54.1-47.5
						C552,147.4,527.9,142.7,514.5,142.7z M522.1,200.8c-2.3,3.2-5.9,5.1-9.9,5.4l-24.9,1.9c-2.5,0-5.8-2.6-5.2-5.2l8.1-37.6
						c0.4-1.9,2-3.3,3.8-4.3H513C533.2,160.6,530.9,188.5,522.1,200.8z"/>
					<path id="XMLID_1161_" display="none" fill="#FFFFFF" stroke="#FFFFFF" stroke-width="4" stroke-miterlimit="10" d="
						M508.7,169.5h-13.5l-6.1,29.9h8.3C520.1,200.7,526.2,168.2,508.7,169.5z"/>
				</g>
			</g>
		</g>
		<g id="XMLID_271_">
			<path id="XMLID_272_" fill="#FFFFFF" stroke="#FBFBFB" stroke-miterlimit="10" d="M674.7,94c0-11.6-13.2-15.6-21.7-16.9
				c0.6-3.4,0.6-7.6-1.5-11.2c-1.6-2.8-5.1-6.4-12.6-6.9c-0.1,0-0.3,0-0.4,0c-19.6,0-35.8,16.7-41,22.7h-55.6
				c-12.2-12.6-26.6-23.2-43.2-31.3C471.6,36.8,439.5,30,403.5,30c0,0-0.1,0-0.1,0l-117.1,1.9c-19.8-28-41.9-29.8-61.1-27.6
				c-5,0.6-12.3,3.2-20.4,7c-4.2-4-13-9-31.1-9c-25,0-54.9,30.9-61.5,38.2c-41.8,6.2-72.2,21-90.7,44.3
				C0.8,110.7,0.4,141.1,0.2,155.7c0,2.7-0.1,5.1-0.2,6.6c0,0.2,0,0.4,0,0.5c0,2.3,1,232.6,1,246.5c0,0.9,0,1.8,0,2.7
				c-0.1,8.5-0.2,19.1,7.7,27.1c6.6,6.7,17.6,10,33.3,10c16,0,27.7-4,34.5-11.8c6.3-7.2,6.4-15.3,6.2-17.7l9.8-109.1
				c1.5-17.5,7.3-29.7,17.5-36.2c7.9-5.1,18.1-6.5,28.6-6v108.9c-0.1,1.9-0.6,15.2,5.8,29.3c6.1,13.6,19.7,30.3,50.1,34.4
				c1.2,1.7,2.7,3.4,4.3,5.1c13.5,13.6,37,20.6,69.9,20.6c31.7,0,54.3-7.6,67.2-22.7c12.4-14.5,11.2-30.8,10.9-33.9v-73
				c4.8,1,12.2,2.1,21.9,2.5v51.9c0,1.3,0,12.8,7.5,24.7c7,11.1,21.9,24.6,53.5,26.9c14.1,13.2,36.9,19.9,67.8,19.9
				c32.6,0,55.6-7.5,68.4-22.2c11.1-12.8,10.4-26.6,10.1-29.3V251.5c0-1.2-0.4-2.3-1-3.2c17-46.2,12.3-98.6-12.4-139.7h35.5
				c4.4,6.1,16.8,20.4,38,21.5c0.1,0,0.2,0,0.3,0c4.2,0,17.2,0,20.6-8.6c1.5-3.8,0.5-7.7-1.2-10.9C664.1,108.8,674.7,104.4,674.7,94
				z M642.2,71.2c0.6,1.1,0.5,3.2,0,5.2c-6.1,0-15.8,0.3-25.7,2.1c6-4.6,13.7-8.8,21.8-8.8C639.6,69.8,641.6,70.2,642.2,71.2z
				 M173.8,12.9c10.5,0,16.6,1.8,20.2,3.6c-12.8,6.6-26.2,14.6-35.9,20.5c-10,0.1-19.6,0.5-28.7,1.3C141.5,27,159.8,12.9,173.8,12.9
				z M149.3,377.8c0-0.1,0-0.3,0-0.4V269.6c13.9,2.2,27.4,6.8,36.6,10.1c0,34,0,124.3,0,131.1c0,0.3,0,0.6,0,0.9
				c0,3.3-0.1,9.8,2.3,17.2C147.1,419.1,149.2,379.6,149.3,377.8z M379.5,391.6c0-0.1,0-0.1,0-0.2v-51.8c10.1-0.1,22-1,35.6-3.2
				v75.1c0,1.5-0.1,9.9,5.2,19.5C379.3,423.6,379.4,393,379.5,391.6z M563,249.5c-1,2.5,0,5.3,2.2,6.6v155.4c0,0.3,0,0.5,0,0.7
				c0.1,0.5,1.3,11.3-7.7,21.5c-10.6,12-31.3,18.3-60.1,18.3c-29,0-50.4-6.4-62.1-18.6c-9.9-10.3-9.6-21.2-9.6-21.6
				c0-0.1,0-0.2,0-0.3v-93.3c0-3-2.4-5.4-5.4-5.4s-5.4,2.4-5.4,5.4v7.2c-36.4,6.1-59.9,2.4-68.3,0.5v-8.2c0-3-2.4-5.4-5.4-5.4
				s-5.4,2.4-5.4,5.4v92.6c0,0.3,0,0.6,0.1,0.8c0,0.1,2,13.7-8.3,25.7c-10.8,12.6-30.6,18.9-59.1,18.9c-29.9,0-50.9-5.8-62.2-17.4
				c-9.8-10-9.7-21.7-9.6-26.7c0-0.4,0-0.7,0-1c0-8.4,0-143.9,0-143.9l-10.8,0c0,0,0,0.5,0,1.4c-21.8-7.7-57.8-18.3-81.8-3
				c-13.1,8.4-20.7,23.3-22.4,44.4L72,419.2c0,0.4-0.1,0.7,0,1.1c0,0.2,0.5,5.5-3.7,10.2c-4.7,5.2-13.8,8-26.3,8
				c-12.6,0-21.2-2.3-25.7-6.8c-4.8-4.8-4.7-12.2-4.6-19.4c0-1,0-1.9,0-2.8c0-13.7-0.9-237.3-1-246.3c0.2-1.9,0.2-4.3,0.2-7.2
				c0.3-26.1,1.1-90.5,104.4-105.1c0.2,0,0.4,0,0.6-0.1c8.2-1.1,17-2,26.6-2.4c-0.5,1.5-0.3,3.2,0.6,4.6c1.6,2.5,4.9,3.2,7.4,1.6
				c2.8-1.8,6.4-4.1,10.6-6.7c0.1,0,0.2,0,0.3,0c2.2,0,4.1-1.3,4.9-3.2c20.2-12.3,49-28.5,60.1-29.7c17.7-2,36.5-0.1,53.9,27.4
				c17.3,27.4,28.7,114.3,0.6,146.7c-11.5,11.1-23.8,13.9-34.7,16.4c-14.7,3.3-29.8,6.8-29.8,32c0,3,2.4,5.4,5.4,5.4
				s5.4-2.4,5.4-5.4c0-16.6,6.7-18.1,21.4-21.5c11.7-2.7,26.3-6,40-19.3c0.1-0.1,0.2-0.2,0.3-0.3c19.1-21.8,20.4-60.6,19.5-81.8
				c-1.2-27.7-7.2-54.9-15.7-71.9l110.8-1.8c64.9,0,116.8,23.9,146,67.4C576.8,148.8,582,202.9,563,249.5z M636.5,119.4
				c-11.3-0.6-19.4-6-24.4-10.9c2.7,0.5,5.7,0.9,9,1.3c8.7,1.1,17.1,1.6,22.2,1.8c2.1,2.3,3.6,4.9,3.6,6
				C646.5,118,644.3,119.4,636.5,119.4z M648.2,101.1c-1.6,0-12.7-0.4-24.4-1.7c-12.5-1.4-19.1-3.2-22.7-4.6
				c13.3-7.5,37.5-8,46.8-7.4c0.1,0,0.1,0,0.2,0C655.4,88,664,90.5,664,94C664,97.5,655.5,100.2,648.2,101.1z"/>
		</g>
		<g id="XMLID_269_" display="none">
			<path id="XMLID_270_" display="inline" fill="#FFFFFF" stroke="#FBFBFB" stroke-miterlimit="10" d="M587.5,92.4
				c-0.5,1.2-0.6,2.7-0.1,4c0.2,0.5,0.4,1,0.7,1.5h-32.5c-1.4-1.9-2.8-3.7-4.2-5.5H587.5z"/>
		</g>
	</g>
</g>
</svg>
