<?xml version="1.0" encoding="UTF-8" standalone="no"?>
<svg
   xmlns:dc="http://purl.org/dc/elements/1.1/"
   xmlns:cc="http://creativecommons.org/ns#"
   xmlns:rdf="http://www.w3.org/1999/02/22-rdf-syntax-ns#"
   xmlns:svg="http://www.w3.org/2000/svg"
   xmlns="http://www.w3.org/2000/svg"
   xmlns:sodipodi="http://sodipodi.sourceforge.net/DTD/sodipodi-0.dtd"
   xmlns:inkscape="http://www.inkscape.org/namespaces/inkscape"
   version="1.0"
   width="512.000000pt"
   height="512.000000pt"
   viewBox="0 0 512.000000 512.000000"
   preserveAspectRatio="xMidYMid meet"
   id="svg2"
   inkscape:version="0.91 r13725"
   sodipodi:docname="gears (1).svg">
  <defs
     id="defs14" />
  <sodipodi:namedview
     pagecolor="#ffffff"
     bordercolor="#666666"
     borderopacity="1"
     objecttolerance="10"
     gridtolerance="10"
     guidetolerance="10"
     inkscape:pageopacity="0"
     inkscape:pageshadow="2"
     inkscape:window-width="689"
     inkscape:window-height="480"
     id="namedview12"
     showgrid="false"
     inkscape:zoom="0.36875"
     inkscape:cx="320"
     inkscape:cy="320"
     inkscape:window-x="2093"
     inkscape:window-y="210"
     inkscape:window-maximized="0"
     inkscape:current-layer="svg2" />
  <metadata
     id="metadata4">
Created by potrace 1.13, written by Peter Selinger 2001-2015
<rdf:RDF>
  <cc:Work
     rdf:about="">
    <dc:format>image/svg+xml</dc:format>
    <dc:type
       rdf:resource="http://purl.org/dc/dcmitype/StillImage" />
  </cc:Work>
</rdf:RDF>
</metadata>
  <g
     transform="translate(0.000000,512.000000) scale(0.100000,-0.100000)"
     fill="#000000"
     stroke="none"
     id="g6"
     style="fill:#ffffff;fill-opacity:1">
    <path
       d="M3475 4560 l-90 -39 4 -99 3 -100 -68 -68 -69 -67 -100 2 -101 2 -38 -93 -38 -93 73 -68 73 -67 -1 -98 -2 -97 -72 -67 -73 -67 39 -97 38 -97 101 7 101 7 69 -70 69 -70 -6 -98 -7 -98 98 -38 c54 -20 102 -37 108 -37 5 0 41 32 79 70 l69 70 96 -1 95 0 55 -69 c30 -38 60 -69 65 -70 6 0 50 16 98 37 l89 36 -7 101 -7 101 70 68 69 68 99 -3 98 -3 38 90 c20 50 36 93 35 96 -1 4 -33 35 -72 70 l-70 63 -1 96 -2 95 74 70 74 70 -38 90 -39 90 -101 0 -102 1 -65 64 -66 65 3 102 3 103 -95 40 -95 40 -67 -74 -68 -75 -98 0 -97 1 -65 74 c-36 40 -67 73 -70 73 -3 0 -45 -18 -95 -39z m485 -491 c68 -36 118 -88 152 -158 19 -38 23 -63 23 -141 0 -84 -3 -101 -28 -148 -131 -249 -484 -248 -608 3 -21 43 -24 64 -24 150 0 84 4 107 23 142 70 132 182 197 324 189 62 -3 88 -10 138 -37z"
       id="path8"
       style="fill:#ffffff;fill-opacity:1" />
    <path
       d="M1831 3478 c-5 -13 -29 -79 -54 -148 -25 -69 -48 -133 -52 -142 -4 -10 -35 -26 -73 -38 -37 -12 -105 -40 -152 -62 l-86 -39 -162 77 -163 78 -125 -125 c-68 -68 -124 -127 -124 -131 0 -5 34 -78 75 -164 l74 -155 -48 -92 c-27 -51 -59 -120 -71 -154 -25 -71 -9 -61 -235 -137 l-130 -43 -3 -180 -2 -181 169 -57 c93 -31 173 -62 178 -68 5 -7 15 -30 22 -52 7 -22 35 -88 64 -148 l51 -107 -74 -156 -74 -155 130 -129 129 -129 158 76 157 75 88 -45 c48 -25 116 -55 152 -68 36 -12 66 -23 68 -24 1 -1 29 -78 61 -171 l59 -169 179 -3 180 -2 60 172 59 173 75 26 c41 14 111 45 156 67 l82 41 157 -75 158 -75 128 128 128 128 -76 160 -76 159 27 56 c14 30 40 100 58 154 l32 100 163 59 162 60 -2 180 -3 179 -161 59 -160 60 -28 87 c-16 48 -43 116 -61 151 l-32 65 77 162 78 162 -128 127 -128 127 -159 -75 -159 -76 -59 30 c-32 16 -102 43 -154 60 l-96 30 -59 165 -58 164 -179 0 c-177 0 -180 0 -188 -22z m339 -883 c104 -27 180 -73 265 -159 121 -121 175 -249 175 -416 0 -161 -58 -299 -175 -415 -116 -117 -254 -175 -415 -175 -167 0 -295 54 -416 175 -86 85 -132 161 -159 265 -19 72 -19 230 0 304 51 196 221 368 416 420 71 19 239 20 309 1z"
       id="path10"
       style="fill:#ffffff;fill-opacity:1" />
  </g>
</svg>
